<?xml version="1.0" encoding="utf-8"?>
<!-- Generator: Adobe Illustrator 27.5.0, SVG Export Plug-In . SVG Version: 6.00 Build 0)  -->
<svg version="1.1" id="Warstwa_1" xmlns="http://www.w3.org/2000/svg" xmlns:xlink="http://www.w3.org/1999/xlink" x="0px" y="0px"
	 viewBox="0 0 1280 720" style="enable-background:new 0 0 1280 720;" xml:space="preserve">
<style type="text/css">
	.st0{fill:none;}
	.st1{fill:#35354F;}
	.st2{fill:url(#SVGID_1_);}
	.st3{opacity:0.5;fill:url(#SVGID_00000078729024541083402270000016220913674935467441_);}
</style>
<pattern  width="400" height="300" patternUnits="userSpaceOnUse" id="x_2D_x" viewBox="1.1 -345 400 300" style="overflow:visible;">
	<g>
		<rect x="1.1" y="-345" class="st0" width="400" height="300"/>
		<g>
			<path class="st1" d="M341.8-10.6l7.2-6.3c18.9-17.3,31-30.1,31-45.9c0-12.2-8.2-24.8-27.5-24.8c-10.4,0-19.2,3.7-25.4,8.7
				l3.9,8.1C335-74.1,341.8-78,350-78c13.4,0,17.8,8,17.8,16.7c-0.1,12.9-10.5,23.9-33.4,44.7l-9.5,8.8v7.1h57.4v-9.6h-40.4V-10.6z"
				/>
			<path class="st1" d="M476.4-47.2c0,14.5-4.7,26.3-13.4,34.4C454.3-4.5,439.9,0,421.8,0c-8.6,0-15.8-0.4-21.8-1.1v-87.1
				c7.3-1.1,16-1.8,25.6-1.8c17.3,0,29.6,3.8,37.7,11C471.6-71.7,476.4-61.5,476.4-47.2z M463.9-46.8c0.1-20.9-12.3-34.2-37.7-34.2
				c-6.2,0-10.9,0.5-14.1,1.2v69.9c3,0.5,7.5,0.7,12.2,0.7C449.9-9.2,463.9-22.9,463.9-46.8z"/>
			<polygon class="st1" points="312,-61.5 298.1,-47.7 284.3,-61.5 280.9,-58.2 294.8,-44.4 280.9,-30.5 284.3,-27.2 298.1,-41 
				312,-27.2 315.3,-30.5 301.4,-44.4 315.3,-58.2 			"/>
		</g>
		<g>
			<path class="st1" d="M76.4-47.2c0,14.5-4.7,26.3-13.4,34.4C54.3-4.5,39.9,0,21.8,0C13.3,0,6.1-0.4,0-1.1v-87.1
				C7.3-89.2,16-90,25.6-90c17.3,0,29.6,3.8,37.7,11C71.6-71.7,76.4-61.5,76.4-47.2z M63.9-46.8C64-67.7,51.6-80.9,26.1-80.9
				c-6.2,0-10.9,0.5-14.1,1.2v69.9c3,0.5,7.5,0.7,12.2,0.7C49.9-9.2,63.9-22.9,63.9-46.8z"/>
			<polygon class="st1" points="121.3,-58.2 118,-61.5 104.1,-47.7 90.3,-61.5 86.9,-58.2 100.8,-44.4 86.9,-30.5 90.3,-27.2 
				104.1,-41 118,-27.2 121.3,-30.5 107.4,-44.4 			"/>
		</g>
		<g>
			<path class="st1" d="M141.8-160.6l7.2-6.3c18.9-17.3,31-30.1,31-45.9c0-12.2-8.2-24.8-27.5-24.8c-10.4,0-19.2,3.7-25.4,8.7
				l3.9,8.1c4.1-3.3,10.9-7.2,19.1-7.2c13.4,0,17.8,8,17.8,16.7c-0.1,12.9-10.5,23.9-33.4,44.7l-9.5,8.8v7.1h57.4v-9.6h-40.4V-160.6
				z"/>
			<path class="st1" d="M276.4-197.2c0,14.5-4.7,26.3-13.4,34.4c-8.7,8.3-23.1,12.7-41.2,12.7c-8.6,0-15.8-0.4-21.8-1.1v-87.1
				c7.3-1.1,16-1.8,25.6-1.8c17.3,0,29.6,3.8,37.7,11C271.6-221.7,276.4-211.5,276.4-197.2z M263.9-196.8
				c0.1-20.9-12.3-34.2-37.7-34.2c-6.2,0-10.9,0.5-14.1,1.2v69.9c3,0.5,7.5,0.7,12.2,0.7C249.9-159.2,263.9-172.9,263.9-196.8z"/>
			<polygon class="st1" points="321.3,-208.2 318,-211.5 304.1,-197.7 290.3,-211.5 286.9,-208.2 300.8,-194.4 286.9,-180.5 
				290.3,-177.2 304.1,-191 318,-177.2 321.3,-180.5 307.4,-194.4 			"/>
			<polygon class="st1" points="112,-211.5 98.1,-197.7 84.3,-211.5 80.9,-208.2 94.8,-194.4 80.9,-180.5 84.3,-177.2 98.1,-191 
				112,-177.2 115.3,-180.5 101.4,-194.4 115.3,-208.2 			"/>
		</g>
		<g>
			<path class="st1" d="M341.8-310.6l7.2-6.3c18.9-17.3,31-30.1,31-45.9c0-12.2-8.2-24.8-27.5-24.8c-10.4,0-19.2,3.7-25.4,8.7
				l3.9,8.1c4.1-3.3,10.9-7.2,19.1-7.2c13.4,0,17.8,8,17.8,16.7c-0.1,12.9-10.5,23.9-33.4,44.7l-9.5,8.8v7.1h57.4v-9.6h-40.4V-310.6
				z"/>
			<path class="st1" d="M476.4-347.2c0,14.5-4.7,26.3-13.4,34.4c-8.7,8.3-23.1,12.7-41.2,12.7c-8.6,0-15.8-0.4-21.8-1.1v-87.1
				c7.3-1.1,16-1.8,25.6-1.8c17.3,0,29.6,3.8,37.7,11C471.6-371.7,476.4-361.5,476.4-347.2z M463.9-346.8
				c0.1-20.9-12.3-34.2-37.7-34.2c-6.2,0-10.9,0.5-14.1,1.2v69.9c3,0.5,7.5,0.7,12.2,0.7C449.9-309.2,463.9-322.9,463.9-346.8z"/>
			<polygon class="st1" points="312,-361.5 298.1,-347.7 284.3,-361.5 280.9,-358.2 294.8,-344.4 280.9,-330.5 284.3,-327.2 
				298.1,-341 312,-327.2 315.3,-330.5 301.4,-344.4 315.3,-358.2 			"/>
		</g>
		<g>
			<path class="st1" d="M76.4-347.2c0,14.5-4.7,26.3-13.4,34.4c-8.7,8.3-23.1,12.7-41.2,12.7c-8.6,0-15.8-0.4-21.8-1.1v-87.1
				c7.3-1.1,16-1.8,25.6-1.8c17.3,0,29.6,3.8,37.7,11C71.6-371.7,76.4-361.5,76.4-347.2z M63.9-346.8c0.1-20.9-12.3-34.2-37.7-34.2
				c-6.2,0-10.9,0.5-14.1,1.2v69.9c3,0.5,7.5,0.7,12.2,0.7C49.9-309.2,63.9-322.9,63.9-346.8z"/>
			<polygon class="st1" points="121.3,-358.2 118,-361.5 104.1,-347.7 90.3,-361.5 86.9,-358.2 100.8,-344.4 86.9,-330.5 
				90.3,-327.2 104.1,-341 118,-327.2 121.3,-330.5 107.4,-344.4 			"/>
		</g>
	</g>
</pattern>
<g>
	<linearGradient id="SVGID_1_" gradientUnits="userSpaceOnUse" x1="0" y1="360" x2="1280" y2="360">
		<stop  offset="0" style="stop-color:#999999"/>
		<stop  offset="1" style="stop-color:#333333"/>
	</linearGradient>
	<rect class="st2" width="1280" height="720"/>
</g>
<pattern  id="SVGID_00000069378890321432425290000010017103060178822282_" xlink:href="#x_2D_x" patternTransform="matrix(0.8715 -0.4903 0.4903 0.8715 2576.2468 -4317.4941)">
</pattern>
<rect style="opacity:0.5;fill:url(#SVGID_00000069378890321432425290000010017103060178822282_);" width="1280" height="720"/>
</svg>
