<svg id="Warstwa_1" data-name="Warstwa 1" xmlns="http://www.w3.org/2000/svg" xmlns:xlink="http://www.w3.org/1999/xlink" viewBox="0 0 1920 3000"><defs><style>.cls-1{fill:url(#Gradient_bez_nazwy_432);}.cls-2{fill:url(#Gradient_bez_nazwy_440);}.cls-3{mix-blend-mode:color-dodge;fill:url(#Gradient_bez_nazwy_444);}.cls-4{fill:url(#Gradient_bez_nazwy_445);}.cls-5{opacity:0.1;}</style><radialGradient id="Gradient_bez_nazwy_432" cx="98.28" cy="98.28" r="98.28" gradientUnits="userSpaceOnUse"><stop offset="0" stop-color="#fff"/><stop offset="0.1" stop-opacity="0"/></radialGradient><radialGradient id="Gradient_bez_nazwy_440" cx="162.91" cy="162.91" r="162.91" gradientUnits="userSpaceOnUse"><stop offset="0" stop-color="#fff"/><stop offset="0.07" stop-color="#fff" stop-opacity="0.9"/><stop offset="0.3" stop-color="#fff" stop-opacity="0.58"/><stop offset="0.5" stop-color="#fff" stop-opacity="0.33"/><stop offset="0.67" stop-color="#fff" stop-opacity="0.15"/><stop offset="0.8" stop-color="#fff" stop-opacity="0.04"/><stop offset="0.88" stop-color="#fff" stop-opacity="0"/></radialGradient><radialGradient id="Gradient_bez_nazwy_444" cx="-7938.38" cy="-8159.78" r="122.02" gradientTransform="translate(4030.2 4140.9) scale(0.5 0.5)" gradientUnits="userSpaceOnUse"><stop offset="0" stop-color="#fff"/><stop offset="0.02" stop-color="#ededed"/><stop offset="0.08" stop-color="#bbb"/><stop offset="0.14" stop-color="#8f8f8f"/><stop offset="0.2" stop-color="#686868"/><stop offset="0.27" stop-color="#484848"/><stop offset="0.34" stop-color="#2e2e2e"/><stop offset="0.42" stop-color="#191919"/><stop offset="0.51" stop-color="#0b0b0b"/><stop offset="0.62" stop-color="#030303"/><stop offset="0.8"/></radialGradient><radialGradient id="Gradient_bez_nazwy_445" cx="956.4" cy="2367.6" r="1259.29" gradientTransform="translate(-78.08 -2208.18) scale(1.07 1.94)" gradientUnits="userSpaceOnUse"><stop offset="0" stop-color="#006aae"/><stop offset="1" stop-color="#0c1117"/></radialGradient><symbol id="Nowy_symbol_2" data-name="Nowy symbol 2" viewBox="0 0 122.02 122.02"><circle class="cls-3" cx="61.01" cy="61.01" r="61.01"/></symbol><symbol id="Nowy_symbol_1" data-name="Nowy symbol 1" viewBox="0 0 325.83 325.83"><circle class="cls-2" cx="162.91" cy="162.91" r="162.91"/></symbol><symbol id="Nowy_symbol" data-name="Nowy symbol" viewBox="0 0 196.55 196.55"><circle class="cls-1" cx="98.28" cy="98.28" r="98.28"/></symbol></defs><rect class="cls-4" x="-78.08" y="-49" width="2059.48" height="3092.4"/><use width="122.02" height="122.02" transform="translate(7.89 1166.02) scale(0.95 1)" xlink:href="#Nowy_symbol_2"/><use width="122.02" height="122.02" transform="translate(122.83 1016.81) scale(0.95 1)" xlink:href="#Nowy_symbol_2"/><use width="122.02" height="122.02" transform="translate(157.09 750.61) scale(0.95 1)" xlink:href="#Nowy_symbol_2"/><use width="122.02" height="122.02" transform="translate(121.94 609.06) scale(0.95 1)" xlink:href="#Nowy_symbol_2"/><use width="122.02" height="122.02" transform="translate(211.78 428.67) scale(0.95 1)" xlink:href="#Nowy_symbol_2"/><use width="122.02" height="122.02" transform="translate(285.7 281.45) scale(0.95 1)" xlink:href="#Nowy_symbol_2"/><use width="122.02" height="122.02" transform="translate(384.3 180.76) scale(0.95 1)" xlink:href="#Nowy_symbol_2"/><use width="122.02" height="122.02" transform="translate(509.18 138.49) scale(0.95 1)" xlink:href="#Nowy_symbol_2"/><use width="122.02" height="122.02" transform="translate(686 110.91) scale(0.95 1)" xlink:href="#Nowy_symbol_2"/><use width="122.02" height="122.02" transform="translate(865.38 106.05) scale(0.95 1)" xlink:href="#Nowy_symbol_2"/><use width="122.02" height="122.02" transform="translate(1095 156.07) scale(0.95 1)" xlink:href="#Nowy_symbol_2"/><use width="122.02" height="122.02" transform="translate(1233.87 279.01) scale(0.95 1)" xlink:href="#Nowy_symbol_2"/><use width="122.02" height="122.02" transform="translate(1361.9 504.4) scale(0.95 1)" xlink:href="#Nowy_symbol_2"/><use width="122.02" height="122.02" transform="translate(1471.18 767.11) scale(0.95 1)" xlink:href="#Nowy_symbol_2"/><use width="122.02" height="122.02" transform="translate(1594.09 1004.7) scale(0.95 1)" xlink:href="#Nowy_symbol_2"/><use width="122.02" height="122.02" transform="translate(1664.74 1144.4) scale(0.95 1)" xlink:href="#Nowy_symbol_2"/><use width="122.02" height="122.02" transform="translate(1683.4 1216.9) scale(0.95 1)" xlink:href="#Nowy_symbol_2"/><use width="122.02" height="122.02" transform="translate(1437.14 1097.69) scale(0.95 1)" xlink:href="#Nowy_symbol_2"/><use width="122.02" height="122.02" transform="translate(1205.18 835.47) scale(0.95 1)" xlink:href="#Nowy_symbol_2"/><use width="122.02" height="122.02" transform="translate(1144.3 568.25) scale(0.95 1)" xlink:href="#Nowy_symbol_2"/><use width="122.02" height="122.02" transform="translate(985.9 449.1) scale(0.95 1)" xlink:href="#Nowy_symbol_2"/><use width="122.02" height="122.02" transform="translate(730.93 473.4) scale(0.95 1)" xlink:href="#Nowy_symbol_2"/><use width="122.02" height="122.02" transform="translate(401.49 811.22) scale(0.95 1)" xlink:href="#Nowy_symbol_2"/><use width="122.02" height="122.02" transform="translate(342.09 1196.91) scale(0.95 1)" xlink:href="#Nowy_symbol_2"/><use width="122.02" height="122.02" transform="translate(174.62 1355.38) scale(0.95 1)" xlink:href="#Nowy_symbol_2"/><use width="122.02" height="122.02" transform="translate(159.4 1300.77) scale(0.95 1)" xlink:href="#Nowy_symbol_2"/><use width="122.02" height="122.02" transform="translate(595.77 1214.35) scale(0.95 1)" xlink:href="#Nowy_symbol_2"/><use width="122.02" height="122.02" transform="translate(1036.84 948.88) scale(0.95 1)" xlink:href="#Nowy_symbol_2"/><use width="122.02" height="122.02" transform="translate(1320.64 891.47) scale(0.95 1)" xlink:href="#Nowy_symbol_2"/><use width="122.02" height="122.02" transform="translate(849.49 793.74) scale(0.95 1)" xlink:href="#Nowy_symbol_2"/><use width="122.02" height="122.02" transform="translate(497.92 849.88) scale(0.95 1)" xlink:href="#Nowy_symbol_2"/><use width="122.02" height="122.02" transform="translate(769.59 583.37) scale(0.95 1)" xlink:href="#Nowy_symbol_2"/><use width="122.02" height="122.02" transform="translate(649.24 550.44) scale(0.95 1)" xlink:href="#Nowy_symbol_2"/><use width="122.02" height="122.02" transform="translate(553.98 319.53) scale(0.95 1)" xlink:href="#Nowy_symbol_2"/><use width="122.02" height="122.02" transform="translate(1330.46 347.66) scale(0.95 1)" xlink:href="#Nowy_symbol_2"/><use width="122.02" height="122.02" transform="translate(925.82 267.62) scale(0.95 1)" xlink:href="#Nowy_symbol_2"/><use width="122.02" height="122.02" transform="translate(1439.88 139.01) scale(0.95 1)" xlink:href="#Nowy_symbol_2"/><use width="122.02" height="122.02" transform="translate(1568.39 148.89) scale(0.95 1)" xlink:href="#Nowy_symbol_2"/><use width="122.02" height="122.02" transform="translate(1056.5 -31.81) scale(0.95 1)" xlink:href="#Nowy_symbol_2"/><use width="122.02" height="122.02" transform="translate(1454.25 -0.61) scale(0.95 1)" xlink:href="#Nowy_symbol_2"/><use width="122.02" height="122.02" transform="translate(636.83 -33.05) scale(0.95 1)" xlink:href="#Nowy_symbol_2"/><use width="122.02" height="122.02" transform="translate(158.87 -49) scale(0.95 1)" xlink:href="#Nowy_symbol_2"/><use width="122.02" height="122.02" transform="translate(31.08 16) scale(0.95 1)" xlink:href="#Nowy_symbol_2"/><use width="122.02" height="122.02" transform="translate(-78.08 129.24) scale(0.95 1)" xlink:href="#Nowy_symbol_2"/><use width="122.02" height="122.02" transform="translate(91.89 500.85) scale(0.95 1)" xlink:href="#Nowy_symbol_2"/><use width="122.02" height="122.02" transform="translate(1080.26 341.74) scale(0.95 1)" xlink:href="#Nowy_symbol_2"/><use width="122.02" height="122.02" transform="translate(1588.99 335.52) scale(0.95 1)" xlink:href="#Nowy_symbol_2"/><use width="122.02" height="122.02" transform="translate(1435.28 913.63) scale(0.95 1)" xlink:href="#Nowy_symbol_2"/><use width="122.02" height="122.02" transform="translate(1530.11 1372.48) scale(0.95 1)" xlink:href="#Nowy_symbol_2"/><use width="122.02" height="122.02" transform="translate(1620.47 1579.27) scale(0.95 1)" xlink:href="#Nowy_symbol_2"/><use width="122.02" height="122.02" transform="translate(648.45 1897.09) scale(0.95 1)" xlink:href="#Nowy_symbol_2"/><use width="122.02" height="122.02" transform="translate(276.32 1914.4) scale(0.95 1)" xlink:href="#Nowy_symbol_2"/><use width="122.02" height="122.02" transform="translate(157.94 2000.05) scale(0.95 1)" xlink:href="#Nowy_symbol_2"/><use width="122.02" height="122.02" transform="translate(293.96 2014.34) scale(0.95 1)" xlink:href="#Nowy_symbol_2"/><use width="122.02" height="122.02" transform="translate(1427.09 1982.37) scale(0.95 1)" xlink:href="#Nowy_symbol_2"/><use width="122.02" height="122.02" transform="translate(1749.69 2082.03) scale(0.95 1)" xlink:href="#Nowy_symbol_2"/><use width="122.02" height="122.02" transform="translate(1454.91 2359.79) scale(0.95 1)" xlink:href="#Nowy_symbol_2"/><use width="122.02" height="122.02" transform="translate(251.09 2752.42) scale(0.95 1)" xlink:href="#Nowy_symbol_2"/><use width="122.02" height="122.02" transform="translate(144.6 2796.62) scale(0.95 1)" xlink:href="#Nowy_symbol_2"/><use width="122.02" height="122.02" transform="translate(1289.43 2764.39) scale(0.95 1)" xlink:href="#Nowy_symbol_2"/><use width="122.02" height="122.02" transform="translate(1095.79 2798.79) scale(0.95 1)" xlink:href="#Nowy_symbol_2"/><use width="122.02" height="122.02" transform="translate(1115.18 2704.2) scale(0.95 1)" xlink:href="#Nowy_symbol_2"/><use width="122.02" height="122.02" transform="translate(1660.2 2568.92) scale(0.95 1)" xlink:href="#Nowy_symbol_2"/><use width="122.02" height="122.02" transform="translate(460.35 2580.03) scale(0.95 1)" xlink:href="#Nowy_symbol_2"/><use width="122.02" height="122.02" transform="translate(968.63 2353.61) scale(0.95 1)" xlink:href="#Nowy_symbol_2"/><use width="122.02" height="122.02" transform="translate(998.7 2232.8) scale(0.95 1)" xlink:href="#Nowy_symbol_2"/><use width="122.02" height="122.02" transform="translate(1081.42 1940.9) scale(0.95 1)" xlink:href="#Nowy_symbol_2"/><use width="122.02" height="122.02" transform="translate(1090.59 1827.56) scale(0.95 1)" xlink:href="#Nowy_symbol_2"/><use width="122.02" height="122.02" transform="translate(492.92 1551.1) scale(0.95 1)" xlink:href="#Nowy_symbol_2"/><use width="122.02" height="122.02" transform="translate(1016.29 1369.95) scale(0.95 1)" xlink:href="#Nowy_symbol_2"/><use width="122.02" height="122.02" transform="translate(565.59 1368.67) scale(0.95 1)" xlink:href="#Nowy_symbol_2"/><use width="122.02" height="122.02" transform="translate(1343.58 1583.87) scale(1.06 1.01)" xlink:href="#Nowy_symbol_2"/><use width="122.02" height="122.02" transform="translate(1263.34 1534.42) scale(1.06 1.01)" xlink:href="#Nowy_symbol_2"/><use width="122.02" height="122.02" transform="translate(1299.26 1313.08) scale(1.06 1.01)" xlink:href="#Nowy_symbol_2"/><use width="122.02" height="122.02" transform="translate(1245.36 1346.43) scale(1.06 1.01)" xlink:href="#Nowy_symbol_2"/><use width="122.02" height="122.02" transform="translate(1117.13 1296.66) scale(1.06 1.01)" xlink:href="#Nowy_symbol_2"/><use width="122.02" height="122.02" transform="translate(1176.26 1137.72) scale(1.06 1.01)" xlink:href="#Nowy_symbol_2"/><use width="122.02" height="122.02" transform="translate(1061.77 1119.72) scale(1.06 1.01)" xlink:href="#Nowy_symbol_2"/><use width="122.02" height="122.02" transform="translate(897.44 1023.85) scale(1.06 1.01)" xlink:href="#Nowy_symbol_2"/><use width="122.02" height="122.02" transform="translate(1841.32 -49) scale(1.06 1.01)" xlink:href="#Nowy_symbol_2"/><use width="122.02" height="122.02" transform="translate(1828.13 85.31) scale(1.06 1.01)" xlink:href="#Nowy_symbol_2"/><use width="122.02" height="122.02" transform="translate(1846.06 317.89) scale(1.06 1.01)" xlink:href="#Nowy_symbol_2"/><use width="122.02" height="122.02" transform="translate(1846.31 504.7) scale(1.06 1.01)" xlink:href="#Nowy_symbol_2"/><use width="122.02" height="122.02" transform="translate(1843.21 662.58) scale(1.06 1.01)" xlink:href="#Nowy_symbol_2"/><use width="122.02" height="122.02" transform="translate(1842.99 819.75) scale(1.06 1.01)" xlink:href="#Nowy_symbol_2"/><use width="122.02" height="122.02" transform="translate(1848.64 1048.14) scale(1.06 1.01)" xlink:href="#Nowy_symbol_2"/><use width="122.02" height="122.02" transform="translate(1749.44 806.64) scale(1.06 1.01)" xlink:href="#Nowy_symbol_2"/><use width="122.02" height="122.02" transform="translate(1851.67 569.79) scale(1.06 1.01)" xlink:href="#Nowy_symbol_2"/><use width="122.02" height="122.02" transform="translate(1813.69 442.94) scale(1.06 1.01)" xlink:href="#Nowy_symbol_2"/><use width="122.02" height="122.02" transform="translate(1805.61 288.03) scale(1.06 1.01)" xlink:href="#Nowy_symbol_2"/><use width="122.02" height="122.02" transform="translate(1743.86 246.28) scale(1.06 1.01)" xlink:href="#Nowy_symbol_2"/><use width="122.02" height="122.02" transform="translate(1684.75 107.93) scale(1.06 1.01)" xlink:href="#Nowy_symbol_2"/><use width="122.02" height="122.02" transform="translate(1568.22 111.33) scale(1.06 1.01)" xlink:href="#Nowy_symbol_2"/><use width="122.02" height="122.02" transform="translate(1468.13 31.94) scale(1.06 1.01)" xlink:href="#Nowy_symbol_2"/><use width="122.02" height="122.02" transform="translate(1604.48 69.93) scale(1.06 1.01)" xlink:href="#Nowy_symbol_2"/><use width="122.02" height="122.02" transform="translate(1595.97 289.29) scale(1.06 1.01)" xlink:href="#Nowy_symbol_2"/><use width="122.02" height="122.02" transform="translate(1618.27 522.48) scale(1.06 1.01)" xlink:href="#Nowy_symbol_2"/><use width="122.02" height="122.02" transform="translate(1674.77 443.08) scale(1.06 1.01)" xlink:href="#Nowy_symbol_2"/><use width="122.02" height="122.02" transform="translate(1381.38 572.27) scale(1.06 1.01)" xlink:href="#Nowy_symbol_2"/><use width="122.02" height="122.02" transform="translate(413.28 2123.33) scale(1.06 1.01)" xlink:href="#Nowy_symbol_2"/><use width="122.02" height="122.02" transform="translate(510.59 2052.93) scale(1.06 1.01)" xlink:href="#Nowy_symbol_2"/><use width="122.02" height="122.02" transform="translate(472.5 2220.99) scale(1.06 1.01)" xlink:href="#Nowy_symbol_2"/><use width="122.02" height="122.02" transform="translate(495.22 2129.18) scale(1.06 1.01)" xlink:href="#Nowy_symbol_2"/><use width="122.02" height="122.02" transform="translate(612.12 2019.54) scale(1.06 1.01)" xlink:href="#Nowy_symbol_2"/><use width="122.02" height="122.02" transform="translate(568.76 2200.8) scale(1.06 1.01)" xlink:href="#Nowy_symbol_2"/><use width="122.02" height="122.02" transform="translate(553.07 2121.35) scale(1.06 1.01)" xlink:href="#Nowy_symbol_2"/><use width="122.02" height="122.02" transform="translate(508.92 2190.71) scale(1.06 1.01)" xlink:href="#Nowy_symbol_2"/><use width="122.02" height="122.02" transform="translate(742.56 2209.38) scale(1.06 1.01)" xlink:href="#Nowy_symbol_2"/><use width="122.02" height="122.02" transform="translate(887.19 2149.89) scale(1.06 1.01)" xlink:href="#Nowy_symbol_2"/><use width="122.02" height="122.02" transform="translate(810 2102.34) scale(1.06 1.01)" xlink:href="#Nowy_symbol_2"/><use width="122.02" height="122.02" transform="translate(903.19 2022.37) scale(1.06 1.01)" xlink:href="#Nowy_symbol_2"/><use width="122.02" height="122.02" transform="translate(937.95 2062.75) scale(1.06 1.01)" xlink:href="#Nowy_symbol_2"/><use width="122.02" height="122.02" transform="translate(1143.67 2074.88) scale(1.06 1.01)" xlink:href="#Nowy_symbol_2"/><use width="122.02" height="122.02" transform="translate(179.93 2343.24) scale(0.96 1.06)" xlink:href="#Nowy_symbol_2"/><use width="122.02" height="122.02" transform="translate(208.17 2420.6) scale(0.96 1.06)" xlink:href="#Nowy_symbol_2"/><use width="122.02" height="122.02" transform="translate(405.28 2453.34) scale(0.96 1.06)" xlink:href="#Nowy_symbol_2"/><use width="122.02" height="122.02" transform="translate(404.88 2505.08) scale(0.96 1.06)" xlink:href="#Nowy_symbol_2"/><use width="122.02" height="122.02" transform="translate(457.61 2480.04) scale(0.96 1.06)" xlink:href="#Nowy_symbol_2"/><use width="122.02" height="122.02" transform="translate(631.77 2641.51) scale(0.96 1.06)" xlink:href="#Nowy_symbol_2"/><use width="122.02" height="122.02" transform="translate(735.7 2819.79) scale(0.96 1.06)" xlink:href="#Nowy_symbol_2"/><use width="122.02" height="122.02" transform="translate(625.28 2865.75) scale(0.96 1.06)" xlink:href="#Nowy_symbol_2"/><use width="122.02" height="122.02" transform="translate(406.65 2820.35) scale(0.96 1.06)" xlink:href="#Nowy_symbol_2"/><use width="122.02" height="122.02" transform="translate(290.52 2864) scale(0.96 1.06)" xlink:href="#Nowy_symbol_2"/><use width="122.02" height="122.02" transform="translate(213.23 2913.95) scale(0.96 1.06)" xlink:href="#Nowy_symbol_2"/><use width="122.02" height="122.02" transform="translate(1068.29 2656.43) scale(0.96 1.06)" xlink:href="#Nowy_symbol_2"/><use width="122.02" height="122.02" transform="translate(1120.09 2464.43) scale(0.96 1.06)" xlink:href="#Nowy_symbol_2"/><use width="122.02" height="122.02" transform="translate(1158.27 2131.94) scale(0.96 1.06)" xlink:href="#Nowy_symbol_2"/><use width="122.02" height="122.02" transform="translate(1262.59 1939.03) scale(0.96 1.06)" xlink:href="#Nowy_symbol_2"/><use width="122.02" height="122.02" transform="translate(1182.06 1807.07) scale(0.96 1.06)" xlink:href="#Nowy_symbol_2"/><use width="122.02" height="122.02" transform="translate(895.04 1696.01) scale(0.96 1.06)" xlink:href="#Nowy_symbol_2"/><use width="122.02" height="122.02" transform="translate(603.68 1757.12) scale(0.96 1.06)" xlink:href="#Nowy_symbol_2"/><use width="122.02" height="122.02" transform="translate(331.69 1787.53) scale(0.96 1.06)" xlink:href="#Nowy_symbol_2"/><use width="122.02" height="122.02" transform="translate(234.99 1642.64) scale(0.96 1.06)" xlink:href="#Nowy_symbol_2"/><use width="122.02" height="122.02" transform="translate(274.21 1366.63) scale(0.96 1.06)" xlink:href="#Nowy_symbol_2"/><use width="122.02" height="122.02" transform="translate(653.38 1130.67) scale(0.96 1.06)" xlink:href="#Nowy_symbol_2"/><use width="122.02" height="122.02" transform="translate(633.61 826.83) scale(0.96 1.06)" xlink:href="#Nowy_symbol_2"/><use width="122.02" height="122.02" transform="translate(249.96 537.84) scale(0.96 1.06)" xlink:href="#Nowy_symbol_2"/><use width="122.02" height="122.02" transform="translate(487.56 311.58) scale(0.96 1.06)" xlink:href="#Nowy_symbol_2"/><use width="122.02" height="122.02" transform="translate(1233.21 181.91) scale(0.96 1.06)" xlink:href="#Nowy_symbol_2"/><use width="122.02" height="122.02" transform="translate(1296.78 278.22) scale(0.96 1.06)" xlink:href="#Nowy_symbol_2"/><use width="122.02" height="122.02" transform="translate(-78.08 635.48) scale(0.96 1.06)" xlink:href="#Nowy_symbol_2"/><use width="122.02" height="122.02" transform="translate(968.67 645.9) scale(0.96 1.06)" xlink:href="#Nowy_symbol_2"/><use width="122.02" height="122.02" transform="translate(406.4 1076.18) scale(0.96 1.06)" xlink:href="#Nowy_symbol_2"/><use width="122.02" height="122.02" transform="translate(1310.27 1092.6) scale(0.96 1.06)" xlink:href="#Nowy_symbol_2"/><use width="122.02" height="122.02" transform="translate(225.36 1306.68) scale(0.96 1.06)" xlink:href="#Nowy_symbol_2"/><use width="122.02" height="122.02" transform="translate(1375.97 1294.69) scale(0.96 1.06)" xlink:href="#Nowy_symbol_2"/><use width="122.02" height="122.02" transform="translate(265 1495.3) scale(0.96 1.06)" xlink:href="#Nowy_symbol_2"/><use width="122.02" height="122.02" transform="translate(1619.81 1608.42) scale(0.96 1.06)" xlink:href="#Nowy_symbol_2"/><use width="122.02" height="122.02" transform="translate(344.12 1727.28) scale(0.96 1.06)" xlink:href="#Nowy_symbol_2"/><use width="122.02" height="122.02" transform="translate(1864.84 1878.45) scale(0.96 1.06)" xlink:href="#Nowy_symbol_2"/><use width="122.02" height="122.02" transform="translate(834.73 1865.09) scale(0.96 1.06)" xlink:href="#Nowy_symbol_2"/><use width="122.02" height="122.02" transform="translate(1789.46 2218.57) scale(0.96 1.06)" xlink:href="#Nowy_symbol_2"/><use width="122.02" height="122.02" transform="translate(1512.27 2196.66) scale(0.96 1.06)" xlink:href="#Nowy_symbol_2"/><use width="122.02" height="122.02" transform="translate(1447.83 2539.6) scale(0.96 1.06)" xlink:href="#Nowy_symbol_2"/><use width="122.02" height="122.02" transform="translate(1359.42 2082.72) scale(0.96 1.06)" xlink:href="#Nowy_symbol_2"/><use width="122.02" height="122.02" transform="translate(1270.96 2333.72) scale(0.96 1.06)" xlink:href="#Nowy_symbol_2"/><use width="122.02" height="122.02" transform="translate(1185.12 2302.48) scale(0.96 1.06)" xlink:href="#Nowy_symbol_2"/><use width="122.02" height="122.02" transform="translate(1748.43 2367.75) scale(0.96 1.06)" xlink:href="#Nowy_symbol_2"/><use width="122.02" height="122.02" transform="translate(868.63 2362.81) scale(0.96 1.06)" xlink:href="#Nowy_symbol_2"/><use width="122.02" height="122.02" transform="translate(1171.38 1864.48) scale(0.96 1.06)" xlink:href="#Nowy_symbol_2"/><use width="122.02" height="122.02" transform="translate(569.93 2449.67) scale(0.96 1.06)" xlink:href="#Nowy_symbol_2"/><use width="122.02" height="122.02" transform="translate(676.65 1322.86) scale(0.96 1.06)" xlink:href="#Nowy_symbol_2"/><use width="122.02" height="122.02" transform="translate(846.72 2274.98) scale(0.96 1.06)" xlink:href="#Nowy_symbol_2"/><use width="122.02" height="122.02" transform="translate(794.56 831.37) scale(0.96 1.06)" xlink:href="#Nowy_symbol_2"/><use width="122.02" height="122.02" transform="translate(803.21 1807.43) scale(0.96 1.06)" xlink:href="#Nowy_symbol_2"/><use width="122.02" height="122.02" transform="translate(1009.26 727.79) scale(0.96 1.06)" xlink:href="#Nowy_symbol_2"/><use width="122.02" height="122.02" transform="translate(1230.96 1645.24) scale(0.96 1.06)" xlink:href="#Nowy_symbol_2"/><use width="122.02" height="122.02" transform="translate(1266.69 537.39) scale(0.96 1.06)" xlink:href="#Nowy_symbol_2"/><use width="122.02" height="122.02" transform="translate(837.12 1390.66) scale(0.96 1.06)" xlink:href="#Nowy_symbol_2"/><use width="122.02" height="122.02" transform="translate(892.31 851.76) scale(0.96 1.06)" xlink:href="#Nowy_symbol_2"/><use width="122.02" height="122.02" transform="translate(800.05 1257.39) scale(0.96 1.06)" xlink:href="#Nowy_symbol_2"/><use width="122.02" height="122.02" transform="translate(1066.83 1043.27) scale(0.96 1.06)" xlink:href="#Nowy_symbol_2"/><use width="122.02" height="122.02" transform="translate(1245.87 995.64) scale(0.96 1.06)" xlink:href="#Nowy_symbol_2"/><use width="122.02" height="122.02" transform="translate(650.93 1450.73) scale(0.96 1.06)" xlink:href="#Nowy_symbol_2"/><use width="122.02" height="122.02" transform="translate(687.34 1453.41) scale(0.96 1.06)" xlink:href="#Nowy_symbol_2"/><use width="122.02" height="122.02" transform="translate(667.73 1550.62) scale(0.96 1.06)" xlink:href="#Nowy_symbol_2"/><use width="122.02" height="122.02" transform="translate(691.76 1654.87) scale(0.96 1.06)" xlink:href="#Nowy_symbol_2"/><use width="122.02" height="122.02" transform="translate(861.8 1673.11) scale(0.96 1.06)" xlink:href="#Nowy_symbol_2"/><use width="122.02" height="122.02" transform="translate(1020.9 1685.96) scale(0.96 1.06)" xlink:href="#Nowy_symbol_2"/><g class="cls-5"><use width="325.83" height="325.83" transform="translate(381.35 129.53) scale(1.03 0.91)" xlink:href="#Nowy_symbol_1"/><use width="325.83" height="325.83" transform="translate(142.78 478.09) scale(1.03 0.91)" xlink:href="#Nowy_symbol_1"/><use width="325.83" height="325.83" transform="translate(503.61 590.14) scale(1.03 0.91)" xlink:href="#Nowy_symbol_1"/><use width="325.83" height="325.83" transform="translate(1269.07 764.46) scale(1.03 0.91)" xlink:href="#Nowy_symbol_1"/><use width="325.83" height="325.83" transform="translate(1321.25 1005.6) scale(1.03 0.91)" xlink:href="#Nowy_symbol_1"/><use width="325.83" height="325.83" transform="translate(1299.15 1320.06) scale(1.03 0.91)" xlink:href="#Nowy_symbol_1"/><use width="325.83" height="325.83" transform="translate(1108.42 1826.74) scale(1.03 0.91)" xlink:href="#Nowy_symbol_1"/><use width="325.83" height="325.83" transform="translate(456.29 2100.21) scale(1.03 0.91)" xlink:href="#Nowy_symbol_1"/><use width="325.83" height="325.83" transform="translate(396.42 2407.08) scale(1.03 0.91)" xlink:href="#Nowy_symbol_1"/><use width="325.83" height="325.83" transform="translate(1323.12 2630.05) scale(1.03 0.91)" xlink:href="#Nowy_symbol_1"/><use width="325.83" height="325.83" transform="translate(950.73 2745.32) scale(1.03 0.91)" xlink:href="#Nowy_symbol_1"/><use width="325.83" height="325.83" transform="translate(40.53 2599.72) scale(1.03 0.91)" xlink:href="#Nowy_symbol_1"/><use width="325.83" height="325.83" transform="translate(734.08 2345.56) scale(1.03 0.91)" xlink:href="#Nowy_symbol_1"/><use width="325.83" height="325.83" transform="translate(551.53 2221.74) scale(1.03 0.91)" xlink:href="#Nowy_symbol_1"/><use width="325.83" height="325.83" transform="translate(-85 1896.35) scale(1.03 0.91)" xlink:href="#Nowy_symbol_1"/><use width="325.83" height="325.83" transform="translate(1115.08 1627.56) scale(1.03 0.91)" xlink:href="#Nowy_symbol_1"/><use width="325.83" height="325.83" transform="translate(680.61 1092.38) scale(1.03 0.91)" xlink:href="#Nowy_symbol_1"/><use width="325.83" height="325.83" transform="translate(299.99 854.29) scale(1.03 0.91)" xlink:href="#Nowy_symbol_1"/><use width="325.83" height="325.83" transform="translate(1017.96 367.5) scale(1.03 0.91)" xlink:href="#Nowy_symbol_1"/><use width="325.83" height="325.83" transform="translate(795.86 226.41) scale(1.03 0.91)" xlink:href="#Nowy_symbol_1"/><use width="325.83" height="325.83" transform="translate(1254.82 94.21) scale(1.03 0.91)" xlink:href="#Nowy_symbol_1"/><use width="325.83" height="325.83" transform="translate(1094.01 619.16) scale(1.03 0.91)" xlink:href="#Nowy_symbol_1"/><use width="325.83" height="325.83" transform="translate(197.46 1042.95) scale(1.03 0.91)" xlink:href="#Nowy_symbol_1"/><use width="325.83" height="325.83" transform="translate(510.52 981.5) scale(1.03 0.91)" xlink:href="#Nowy_symbol_1"/><use width="325.83" height="325.83" transform="translate(123.01 1113.89) scale(1.03 0.91)" xlink:href="#Nowy_symbol_1"/><use width="325.83" height="325.83" transform="translate(25.53 1481.22) scale(1.03 0.91)" xlink:href="#Nowy_symbol_1"/><use width="325.83" height="325.83" transform="translate(1131.21 1168.21) scale(1.03 0.91)" xlink:href="#Nowy_symbol_1"/><use width="325.83" height="325.83" transform="translate(982.44 1979.4) scale(1.03 0.91)" xlink:href="#Nowy_symbol_1"/><use width="325.83" height="325.83" transform="translate(1644.78 1375.64) scale(1.03 0.91)" xlink:href="#Nowy_symbol_1"/><use width="325.83" height="325.83" transform="translate(1500.93 1289.42) scale(1.03 0.91)" xlink:href="#Nowy_symbol_1"/><use width="325.83" height="325.83" transform="translate(1137.75 993.61) scale(1.03 0.91)" xlink:href="#Nowy_symbol_1"/><use width="325.83" height="325.83" transform="translate(749.15 1561.41) scale(1.03 0.91)" xlink:href="#Nowy_symbol_1"/><use width="325.83" height="325.83" transform="translate(721.33 1265.7) scale(1.03 0.91)" xlink:href="#Nowy_symbol_1"/><use width="325.83" height="325.83" transform="translate(376.55 1821.03) scale(1.03 0.91)" xlink:href="#Nowy_symbol_1"/><use width="325.83" height="325.83" transform="translate(518.23 1246.08) scale(1.03 0.91)" xlink:href="#Nowy_symbol_1"/><use width="325.83" height="325.83" transform="translate(351.19 1914.27) scale(1.03 0.91)" xlink:href="#Nowy_symbol_1"/><use width="325.83" height="325.83" transform="translate(385.13 1470.93) scale(1.03 0.91)" xlink:href="#Nowy_symbol_1"/><use width="325.83" height="325.83" transform="translate(167.16 1679.93) scale(1.03 0.91)" xlink:href="#Nowy_symbol_1"/><use width="325.83" height="325.83" transform="translate(618.49 1275.1) scale(1.03 0.91)" xlink:href="#Nowy_symbol_1"/><use width="325.83" height="325.83" transform="translate(643.07 1608.82) scale(1.03 0.91)" xlink:href="#Nowy_symbol_1"/><use width="325.83" height="325.83" transform="translate(1466.78 592.76) scale(1.03 0.91)" xlink:href="#Nowy_symbol_1"/><use width="325.83" height="325.83" transform="translate(1266.22 904.23) scale(1.03 0.91)" xlink:href="#Nowy_symbol_1"/><use width="325.83" height="325.83" transform="translate(1583.83 500.45) scale(1.03 0.91)" xlink:href="#Nowy_symbol_1"/><use width="325.83" height="325.83" transform="translate(221.38 1927.05) scale(1.03 0.91)" xlink:href="#Nowy_symbol_1"/><use width="325.83" height="325.83" transform="translate(291.97 1564.32) scale(1.03 0.91)" xlink:href="#Nowy_symbol_1"/><use width="325.83" height="325.83" transform="translate(262.58 1821.93) scale(1.03 0.91)" xlink:href="#Nowy_symbol_1"/><use width="325.83" height="325.83" transform="translate(232.17 1487.84) scale(1.03 0.91)" xlink:href="#Nowy_symbol_1"/><use width="325.83" height="325.83" transform="translate(349.43 1743.49) scale(1.03 0.91)" xlink:href="#Nowy_symbol_1"/><use width="325.83" height="325.83" transform="translate(397.52 1607.97) scale(1.03 0.91)" xlink:href="#Nowy_symbol_1"/><use width="325.83" height="325.83" transform="translate(507.2 1633.65) scale(1.03 0.91)" xlink:href="#Nowy_symbol_1"/><use width="325.83" height="325.83" transform="translate(519.75 1774.21) scale(1.03 0.91)" xlink:href="#Nowy_symbol_1"/><use width="325.83" height="325.83" transform="translate(572.91 1718.32) scale(1.03 0.91)" xlink:href="#Nowy_symbol_1"/><use width="325.83" height="325.83" transform="translate(583.49 2120.95) scale(1.03 0.91)" xlink:href="#Nowy_symbol_1"/><use width="325.83" height="325.83" transform="translate(598.79 1984.78) scale(1.03 0.91)" xlink:href="#Nowy_symbol_1"/><use width="325.83" height="325.83" transform="translate(625.48 2249.93) scale(1.03 0.91)" xlink:href="#Nowy_symbol_1"/><use width="325.83" height="325.83" transform="translate(495.33 1827.46) scale(1.03 0.91)" xlink:href="#Nowy_symbol_1"/><use width="325.83" height="325.83" transform="translate(658.41 2111.93) scale(1.03 0.91)" xlink:href="#Nowy_symbol_1"/><use width="325.83" height="325.83" transform="translate(444.3 1737.25) scale(1.03 0.91)" xlink:href="#Nowy_symbol_1"/><use width="325.83" height="325.83" transform="translate(382.69 2111.33) scale(1.03 0.91)" xlink:href="#Nowy_symbol_1"/><use width="325.83" height="325.83" transform="translate(190.49 1857.01) scale(1.03 0.91)" xlink:href="#Nowy_symbol_1"/><use width="325.83" height="325.83" transform="translate(204.68 1601.36) scale(1.03 0.91)" xlink:href="#Nowy_symbol_1"/><use width="325.83" height="325.83" transform="translate(409.58 1009.22) scale(1.03 0.91)" xlink:href="#Nowy_symbol_1"/><use width="325.83" height="325.83" transform="translate(568.45 755.66) scale(1.03 0.91)" xlink:href="#Nowy_symbol_1"/><use width="325.83" height="325.83" transform="translate(328.01 1391.27) scale(1.03 0.91)" xlink:href="#Nowy_symbol_1"/><use width="325.83" height="325.83" transform="translate(516.63 1058.31) scale(1.03 0.91)" xlink:href="#Nowy_symbol_1"/><use width="325.83" height="325.83" transform="translate(219.37 1379.79) scale(1.03 0.91)" xlink:href="#Nowy_symbol_1"/><use width="325.83" height="325.83" transform="translate(352.55 1258.34) scale(1.03 0.91)" xlink:href="#Nowy_symbol_1"/><use width="325.83" height="325.83" transform="translate(281.42 1188.67) scale(1.03 0.91)" xlink:href="#Nowy_symbol_1"/><use width="325.83" height="325.83" transform="translate(271.75 1268.56) scale(1.03 0.91)" xlink:href="#Nowy_symbol_1"/><use width="325.83" height="325.83" transform="translate(372.64 1170.48) scale(1.03 0.91)" xlink:href="#Nowy_symbol_1"/><use width="325.83" height="325.83" transform="translate(438.68 1119.84) scale(1.03 0.91)" xlink:href="#Nowy_symbol_1"/><use width="325.83" height="325.83" transform="translate(655.89 996.78) scale(1.03 0.91)" xlink:href="#Nowy_symbol_1"/><use width="325.83" height="325.83" transform="translate(749.25 971.72) scale(1.03 0.91)" xlink:href="#Nowy_symbol_1"/><use width="325.83" height="325.83" transform="translate(1100.75 911.22) scale(1.03 0.91)" xlink:href="#Nowy_symbol_1"/><use width="325.83" height="325.83" transform="translate(1209.23 797.45) scale(1.03 0.91)" xlink:href="#Nowy_symbol_1"/><use width="325.83" height="325.83" transform="translate(1193.56 692.99) scale(1.03 0.91)" xlink:href="#Nowy_symbol_1"/><use width="325.83" height="325.83" transform="translate(1037.78 570.67) scale(1.03 0.91)" xlink:href="#Nowy_symbol_1"/><use width="325.83" height="325.83" transform="translate(684.64 421.88) scale(1.03 0.91)" xlink:href="#Nowy_symbol_1"/><use width="325.83" height="325.83" transform="translate(467.92 380.63) scale(1.03 0.91)" xlink:href="#Nowy_symbol_1"/><use width="325.83" height="325.83" transform="translate(375.46 325.86) scale(1.03 0.91)" xlink:href="#Nowy_symbol_1"/><use width="325.83" height="325.83" transform="translate(403 207.22) scale(1.03 0.91)" xlink:href="#Nowy_symbol_1"/><use width="325.83" height="325.83" transform="translate(469.21 257.27) scale(1.03 0.91)" xlink:href="#Nowy_symbol_1"/><use width="325.83" height="325.83" transform="translate(764.24 335.27) scale(1.03 0.91)" xlink:href="#Nowy_symbol_1"/><use width="325.83" height="325.83" transform="translate(1115.62 407.12) scale(1.03 0.91)" xlink:href="#Nowy_symbol_1"/><use width="325.83" height="325.83" transform="translate(1321.62 411.16) scale(1.03 0.91)" xlink:href="#Nowy_symbol_1"/><use width="325.83" height="325.83" transform="translate(1403.06 302.11) scale(1.03 0.91)" xlink:href="#Nowy_symbol_1"/><use width="325.83" height="325.83" transform="translate(1333.09 337.57) scale(1.03 0.91)" xlink:href="#Nowy_symbol_1"/><use width="325.83" height="325.83" transform="translate(839.78 2747) scale(1.03 0.91)" xlink:href="#Nowy_symbol_1"/><use width="325.83" height="325.83" transform="translate(730.26 2627.54) scale(1.03 0.91)" xlink:href="#Nowy_symbol_1"/><use width="325.83" height="325.83" transform="translate(778.22 2702.26) scale(1.03 0.91)" xlink:href="#Nowy_symbol_1"/><use width="325.83" height="325.83" transform="translate(1035.15 2682.17) scale(1.03 0.91)" xlink:href="#Nowy_symbol_1"/><use width="325.83" height="325.83" transform="translate(908.92 2432.76) scale(1.03 0.91)" xlink:href="#Nowy_symbol_1"/><use width="325.83" height="325.83" transform="translate(910.39 2572.38) scale(1.03 0.91)" xlink:href="#Nowy_symbol_1"/><use width="325.83" height="325.83" transform="translate(904.94 2324.93) scale(1.03 0.91)" xlink:href="#Nowy_symbol_1"/><use width="325.83" height="325.83" transform="translate(974.84 2563.58) scale(1.03 0.91)" xlink:href="#Nowy_symbol_1"/><use width="325.83" height="325.83" transform="translate(1048.22 2227.35) scale(1.03 0.91)" xlink:href="#Nowy_symbol_1"/><use width="325.83" height="325.83" transform="translate(1084.54 2407.41) scale(1.03 0.91)" xlink:href="#Nowy_symbol_1"/><use width="325.83" height="325.83" transform="translate(1077.38 2331.81) scale(1.03 0.91)" xlink:href="#Nowy_symbol_1"/><use width="325.83" height="325.83" transform="translate(1088.93 2571.83) scale(1.03 0.91)" xlink:href="#Nowy_symbol_1"/><use width="325.83" height="325.83" transform="translate(1024.06 2457.47) scale(1.03 0.91)" xlink:href="#Nowy_symbol_1"/><use width="325.83" height="325.83" transform="translate(831.21 2563.34) scale(1.03 0.91)" xlink:href="#Nowy_symbol_1"/><use width="325.83" height="325.83" transform="translate(983.51 2393.68) scale(1.03 0.91)" xlink:href="#Nowy_symbol_1"/><use width="325.83" height="325.83" transform="translate(1156.59 2232.49) scale(1.03 0.91)" xlink:href="#Nowy_symbol_1"/><use width="325.83" height="325.83" transform="translate(1107.4 1907.86) scale(1.03 0.91)" xlink:href="#Nowy_symbol_1"/><use width="325.83" height="325.83" transform="translate(1092.01 2015.95) scale(1.03 0.91)" xlink:href="#Nowy_symbol_1"/><use width="325.83" height="325.83" transform="translate(592.7 1831.65) scale(1.03 0.91)" xlink:href="#Nowy_symbol_1"/><use width="325.83" height="325.83" transform="translate(845.73 2136.32) scale(1.03 0.91)" xlink:href="#Nowy_symbol_1"/><use width="325.83" height="325.83" transform="translate(796.95 2015.57) scale(1.03 0.91)" xlink:href="#Nowy_symbol_1"/><use width="325.83" height="325.83" transform="translate(835.59 374.44) scale(1.03 0.91)" xlink:href="#Nowy_symbol_1"/><use width="325.83" height="325.83" transform="translate(616.22 172) scale(1.03 0.91)" xlink:href="#Nowy_symbol_1"/><use width="325.83" height="325.83" transform="translate(474.21 -9.78) scale(1.03 0.91)" xlink:href="#Nowy_symbol_1"/><use width="325.83" height="325.83" transform="translate(755.43 -44.52) scale(1.03 0.91)" xlink:href="#Nowy_symbol_1"/><use width="325.83" height="325.83" transform="translate(823.41 -49) scale(1.03 0.91)" xlink:href="#Nowy_symbol_1"/><use width="325.83" height="325.83" transform="translate(649.91 7.03) scale(1.03 0.91)" xlink:href="#Nowy_symbol_1"/><use width="325.83" height="325.83" transform="translate(491.06 801.15) scale(1.03 0.91)" xlink:href="#Nowy_symbol_1"/><use width="325.83" height="325.83" transform="translate(648.16 522.34) scale(1.03 0.91)" xlink:href="#Nowy_symbol_1"/><use width="325.83" height="325.83" transform="translate(601.62 858.1) scale(1.03 0.91)" xlink:href="#Nowy_symbol_1"/><use width="325.83" height="325.83" transform="translate(605.14 595.9) scale(1.03 0.91)" xlink:href="#Nowy_symbol_1"/><use width="325.83" height="325.83" transform="translate(780.53 893.9) scale(1.03 0.91)" xlink:href="#Nowy_symbol_1"/><use width="325.83" height="325.83" transform="translate(849.26 549.55) scale(1.03 0.91)" xlink:href="#Nowy_symbol_1"/><use width="325.83" height="325.83" transform="translate(701.72 681.45) scale(1.03 0.91)" xlink:href="#Nowy_symbol_1"/><use width="325.83" height="325.83" transform="translate(721.86 610.58) scale(1.03 0.91)" xlink:href="#Nowy_symbol_1"/><use width="325.83" height="325.83" transform="translate(769.08 556.28) scale(1.03 0.91)" xlink:href="#Nowy_symbol_1"/><use width="325.83" height="325.83" transform="translate(927.49 581.05) scale(1.03 0.91)" xlink:href="#Nowy_symbol_1"/><use width="325.83" height="325.83" transform="translate(889.63 641.09) scale(1.03 0.91)" xlink:href="#Nowy_symbol_1"/><use width="325.83" height="325.83" transform="translate(1105.03 734.15) scale(1.03 0.91)" xlink:href="#Nowy_symbol_1"/><use width="325.83" height="325.83" transform="translate(1101.53 816.55) scale(1.03 0.91)" xlink:href="#Nowy_symbol_1"/><use width="325.83" height="325.83" transform="translate(1005.63 751.02) scale(1.03 0.91)" xlink:href="#Nowy_symbol_1"/><use width="325.83" height="325.83" transform="translate(991.61 827.14) scale(1.03 0.91)" xlink:href="#Nowy_symbol_1"/><use width="325.83" height="325.83" transform="translate(814.83 759.56) scale(1.03 0.91)" xlink:href="#Nowy_symbol_1"/><use width="325.83" height="325.83" transform="translate(888.15 786.81) scale(1.03 0.91)" xlink:href="#Nowy_symbol_1"/><use width="325.83" height="325.83" transform="translate(922.55 723.14) scale(1.03 0.91)" xlink:href="#Nowy_symbol_1"/><use width="325.83" height="325.83" transform="translate(997.83 644.61) scale(1.03 0.91)" xlink:href="#Nowy_symbol_1"/><use width="325.83" height="325.83" transform="translate(1152.95 1555.96) scale(1.03 0.91)" xlink:href="#Nowy_symbol_1"/><use width="325.83" height="325.83" transform="translate(1186.17 1367.41) scale(1.03 0.91)" xlink:href="#Nowy_symbol_1"/><use width="325.83" height="325.83" transform="translate(887.49 1407.9) scale(1.03 0.91)" xlink:href="#Nowy_symbol_1"/><use width="325.83" height="325.83" transform="translate(994.76 1448.36) scale(1.03 0.91)" xlink:href="#Nowy_symbol_1"/><use width="325.83" height="325.83" transform="translate(1045.61 1508.12) scale(1.03 0.91)" xlink:href="#Nowy_symbol_1"/><use width="325.83" height="325.83" transform="translate(1107.03 1388.92) scale(1.03 0.91)" xlink:href="#Nowy_symbol_1"/><use width="325.83" height="325.83" transform="translate(1126.24 1453.46) scale(1.03 0.91)" xlink:href="#Nowy_symbol_1"/><use width="325.83" height="325.83" transform="translate(1208.12 1449.37) scale(1.03 0.91)" xlink:href="#Nowy_symbol_1"/><use width="325.83" height="325.83" transform="translate(986.21 1538.03) scale(1.03 0.91)" xlink:href="#Nowy_symbol_1"/><use width="325.83" height="325.83" transform="translate(1017.58 1359.92) scale(1.03 0.91)" xlink:href="#Nowy_symbol_1"/><use width="325.83" height="325.83" transform="translate(891.46 1474.75) scale(1.03 0.91)" xlink:href="#Nowy_symbol_1"/><use width="325.83" height="325.83" transform="translate(669.98 1491.75) scale(1.03 0.91)" xlink:href="#Nowy_symbol_1"/><use width="325.83" height="325.83" transform="translate(693.6 1401.83) scale(1.03 0.91)" xlink:href="#Nowy_symbol_1"/><use width="325.83" height="325.83" transform="translate(508.62 1548.91) scale(1.03 0.91)" xlink:href="#Nowy_symbol_1"/><use width="325.83" height="325.83" transform="translate(496.75 1351.6) scale(1.03 0.91)" xlink:href="#Nowy_symbol_1"/><use width="325.83" height="325.83" transform="translate(601.11 1406.15) scale(1.03 0.91)" xlink:href="#Nowy_symbol_1"/><use width="325.83" height="325.83" transform="translate(556.92 1328.55) scale(1.03 0.91)" xlink:href="#Nowy_symbol_1"/><use width="325.83" height="325.83" transform="translate(553.11 1458.33) scale(1.03 0.91)" xlink:href="#Nowy_symbol_1"/><use width="325.83" height="325.83" transform="translate(486.42 1436) scale(1.03 0.91)" xlink:href="#Nowy_symbol_1"/><use width="325.83" height="325.83" transform="translate(975.05 1822.57) scale(1.03 0.91)" xlink:href="#Nowy_symbol_1"/><use width="325.83" height="325.83" transform="translate(909.7 1794.75) scale(1.03 0.91)" xlink:href="#Nowy_symbol_1"/><use width="325.83" height="325.83" transform="translate(969.29 1915.73) scale(1.03 0.91)" xlink:href="#Nowy_symbol_1"/><use width="325.83" height="325.83" transform="translate(1011.63 1769.57) scale(1.03 0.91)" xlink:href="#Nowy_symbol_1"/><use width="325.83" height="325.83" transform="translate(775.83 1932.05) scale(1.03 0.91)" xlink:href="#Nowy_symbol_1"/><use width="325.83" height="325.83" transform="translate(790.65 1800.9) scale(1.03 0.91)" xlink:href="#Nowy_symbol_1"/><use width="325.83" height="325.83" transform="translate(878.84 1958.06) scale(1.03 0.91)" xlink:href="#Nowy_symbol_1"/><use width="325.83" height="325.83" transform="translate(943.51 1716.16) scale(1.03 0.91)" xlink:href="#Nowy_symbol_1"/><use width="325.83" height="325.83" transform="translate(858.52 1865.46) scale(1.03 0.91)" xlink:href="#Nowy_symbol_1"/><use width="325.83" height="325.83" transform="translate(797.12 1735.22) scale(1.03 0.91)" xlink:href="#Nowy_symbol_1"/><use width="325.83" height="325.83" transform="translate(776.45 1860.67) scale(1.03 0.91)" xlink:href="#Nowy_symbol_1"/><use width="325.83" height="325.83" transform="translate(864.64 1714.14) scale(1.03 0.91)" xlink:href="#Nowy_symbol_1"/><use width="325.83" height="325.83" transform="translate(1218.17 1148.35) scale(1.03 0.91)" xlink:href="#Nowy_symbol_1"/><use width="325.83" height="325.83" transform="translate(1120.01 1236.16) scale(1.03 0.91)" xlink:href="#Nowy_symbol_1"/><use width="325.83" height="325.83" transform="translate(1098.96 1055.52) scale(1.03 0.91)" xlink:href="#Nowy_symbol_1"/><use width="325.83" height="325.83" transform="translate(1053.63 1105.03) scale(1.03 0.91)" xlink:href="#Nowy_symbol_1"/><use width="325.83" height="325.83" transform="translate(987.17 1017.36) scale(1.03 0.91)" xlink:href="#Nowy_symbol_1"/><use width="325.83" height="325.83" transform="translate(1008.22 1206.88) scale(1.03 0.91)" xlink:href="#Nowy_symbol_1"/><use width="325.83" height="325.83" transform="translate(941.32 952.09) scale(1.03 0.91)" xlink:href="#Nowy_symbol_1"/><use width="325.83" height="325.83" transform="translate(946.82 1174.95) scale(1.03 0.91)" xlink:href="#Nowy_symbol_1"/><use width="325.83" height="325.83" transform="translate(866.96 994.15) scale(1.03 0.91)" xlink:href="#Nowy_symbol_1"/><use width="325.83" height="325.83" transform="translate(857.93 1168.52) scale(1.03 0.91)" xlink:href="#Nowy_symbol_1"/><use width="325.83" height="325.83" transform="translate(905.91 1093.19) scale(1.03 0.91)" xlink:href="#Nowy_symbol_1"/><use width="325.83" height="325.83" transform="translate(931.09 1248.27) scale(1.03 0.91)" xlink:href="#Nowy_symbol_1"/><use width="325.83" height="325.83" transform="translate(826.26 1094.36) scale(1.03 0.91)" xlink:href="#Nowy_symbol_1"/><use width="325.83" height="325.83" transform="translate(863.74 1229.34) scale(1.03 0.91)" xlink:href="#Nowy_symbol_1"/></g><use width="196.55" height="196.55" transform="translate(166.41 2380.91) scale(0.92 0.99)" xlink:href="#Nowy_symbol"/><use width="196.55" height="196.55" transform="translate(247.1 2047.79) scale(0.92 0.99)" xlink:href="#Nowy_symbol"/><use width="196.55" height="196.55" transform="translate(273.53 1766.63) scale(0.92 0.99)" xlink:href="#Nowy_symbol"/><use width="196.55" height="196.55" transform="translate(399.35 1591.25) scale(0.92 0.99)" xlink:href="#Nowy_symbol"/><use width="196.55" height="196.55" transform="translate(485.91 1431.18) scale(0.92 0.99)" xlink:href="#Nowy_symbol"/><use width="196.55" height="196.55" transform="translate(494.06 1213.91) scale(0.92 0.99)" xlink:href="#Nowy_symbol"/><use width="196.55" height="196.55" transform="translate(76.42 2811.27) scale(0.92 0.99)" xlink:href="#Nowy_symbol"/><use width="196.55" height="196.55" transform="translate(169.75 2816.41) scale(0.92 0.99)" xlink:href="#Nowy_symbol"/><use width="196.55" height="196.55" transform="translate(389.71 2834.85) scale(0.92 0.99)" xlink:href="#Nowy_symbol"/><use width="196.55" height="196.55" transform="translate(541.51 2819.88) scale(0.92 0.99)" xlink:href="#Nowy_symbol"/><use width="196.55" height="196.55" transform="translate(677.73 2830.53) scale(0.92 0.99)" xlink:href="#Nowy_symbol"/><use width="196.55" height="196.55" transform="translate(839.12 2843.61) scale(0.92 0.99)" xlink:href="#Nowy_symbol"/><use width="196.55" height="196.55" transform="translate(1008.84 2847.29) scale(0.92 0.99)" xlink:href="#Nowy_symbol"/><use width="196.55" height="196.55" transform="translate(1208.68 2848.27) scale(0.92 0.99)" xlink:href="#Nowy_symbol"/><use width="196.55" height="196.55" transform="translate(1417.76 2832.84) scale(0.92 0.99)" xlink:href="#Nowy_symbol"/><use width="196.55" height="196.55" transform="translate(1600.19 2785.59) scale(0.92 0.99)" xlink:href="#Nowy_symbol"/><use width="196.55" height="196.55" transform="translate(1689.01 2750.94) scale(0.92 0.99)" xlink:href="#Nowy_symbol"/><use width="196.55" height="196.55" transform="translate(1769.56 2711.07) scale(0.92 0.99)" xlink:href="#Nowy_symbol"/><use width="196.55" height="196.55" transform="translate(1799.78 2666.07) scale(0.92 0.99)" xlink:href="#Nowy_symbol"/><use width="196.55" height="196.55" transform="translate(1709.04 2625.17) scale(0.92 0.99)" xlink:href="#Nowy_symbol"/><use width="196.55" height="196.55" transform="translate(1550.55 2633.05) scale(0.92 0.99)" xlink:href="#Nowy_symbol"/><use width="196.55" height="196.55" transform="translate(1369.44 2649.89) scale(0.92 0.99)" xlink:href="#Nowy_symbol"/><use width="196.55" height="196.55" transform="translate(1172.48 2649.63) scale(0.92 0.99)" xlink:href="#Nowy_symbol"/><use width="196.55" height="196.55" transform="translate(1012.47 2648.59) scale(0.92 0.99)" xlink:href="#Nowy_symbol"/><use width="196.55" height="196.55" transform="translate(854.34 2646.82) scale(0.92 0.99)" xlink:href="#Nowy_symbol"/><use width="196.55" height="196.55" transform="translate(706.78 2637.86) scale(0.92 0.99)" xlink:href="#Nowy_symbol"/><use width="196.55" height="196.55" transform="translate(554.12 2629.85) scale(0.92 0.99)" xlink:href="#Nowy_symbol"/><use width="196.55" height="196.55" transform="translate(394.43 2612.5) scale(0.92 0.99)" xlink:href="#Nowy_symbol"/><use width="196.55" height="196.55" transform="translate(265.67 2593.97) scale(0.92 0.99)" xlink:href="#Nowy_symbol"/><use width="196.55" height="196.55" transform="translate(168.37 2563.09) scale(0.92 0.99)" xlink:href="#Nowy_symbol"/><use width="196.55" height="196.55" transform="translate(157.95 2505.62) scale(0.92 0.99)" xlink:href="#Nowy_symbol"/><use width="196.55" height="196.55" transform="translate(282.38 2474.13) scale(0.92 0.99)" xlink:href="#Nowy_symbol"/><use width="196.55" height="196.55" transform="translate(563.34 2471.7) scale(0.92 0.99)" xlink:href="#Nowy_symbol"/><use width="196.55" height="196.55" transform="translate(917.32 2492.16) scale(0.92 0.99)" xlink:href="#Nowy_symbol"/><use width="196.55" height="196.55" transform="translate(1192.52 2505.98) scale(0.92 0.99)" xlink:href="#Nowy_symbol"/><use width="196.55" height="196.55" transform="translate(1397.79 2490.92) scale(0.92 0.99)" xlink:href="#Nowy_symbol"/><use width="196.55" height="196.55" transform="translate(1604.74 2472.99) scale(0.92 0.99)" xlink:href="#Nowy_symbol"/><use width="196.55" height="196.55" transform="translate(1705.06 2431.19) scale(0.92 0.99)" xlink:href="#Nowy_symbol"/><use width="196.55" height="196.55" transform="translate(1754.07 2357.86) scale(0.92 0.99)" xlink:href="#Nowy_symbol"/><use width="196.55" height="196.55" transform="translate(1699.88 2298.26) scale(0.92 0.99)" xlink:href="#Nowy_symbol"/><use width="196.55" height="196.55" transform="translate(1403.72 2267.04) scale(0.92 0.99)" xlink:href="#Nowy_symbol"/><use width="196.55" height="196.55" transform="translate(963.8 2262.68) scale(0.92 0.99)" xlink:href="#Nowy_symbol"/><use width="196.55" height="196.55" transform="translate(765.33 2291.09) scale(0.92 0.99)" xlink:href="#Nowy_symbol"/><use width="196.55" height="196.55" transform="translate(520.27 2290.21) scale(0.92 0.99)" xlink:href="#Nowy_symbol"/><use width="196.55" height="196.55" transform="translate(218.63 2250.47) scale(0.92 0.99)" xlink:href="#Nowy_symbol"/><use width="196.55" height="196.55" transform="translate(71.98 2200.58) scale(0.92 0.99)" xlink:href="#Nowy_symbol"/><use width="196.55" height="196.55" transform="translate(137.8 2107.63) scale(0.92 0.99)" xlink:href="#Nowy_symbol"/><use width="196.55" height="196.55" transform="translate(486.45 2119.26) scale(0.92 0.99)" xlink:href="#Nowy_symbol"/><use width="196.55" height="196.55" transform="translate(933.71 2135) scale(0.92 0.99)" xlink:href="#Nowy_symbol"/><use width="196.55" height="196.55" transform="translate(1277.19 2100.47) scale(0.92 0.99)" xlink:href="#Nowy_symbol"/><use width="196.55" height="196.55" transform="translate(1444.23 2057.92) scale(0.92 0.99)" xlink:href="#Nowy_symbol"/><use width="196.55" height="196.55" transform="translate(1601.46 1980.22) scale(0.92 0.99)" xlink:href="#Nowy_symbol"/><use width="196.55" height="196.55" transform="translate(1595.35 1886.47) scale(0.92 0.99)" xlink:href="#Nowy_symbol"/><use width="196.55" height="196.55" transform="translate(1248.63 1878.37) scale(0.92 0.99)" xlink:href="#Nowy_symbol"/><use width="196.55" height="196.55" transform="translate(819.24 1864) scale(0.92 0.99)" xlink:href="#Nowy_symbol"/><use width="196.55" height="196.55" transform="translate(477.97 1872.38) scale(0.92 0.99)" xlink:href="#Nowy_symbol"/><use width="196.55" height="196.55" transform="translate(226.28 1822.52) scale(0.92 0.99)" xlink:href="#Nowy_symbol"/><use width="196.55" height="196.55" transform="translate(39.61 1752.45) scale(0.92 0.99)" xlink:href="#Nowy_symbol"/><use width="196.55" height="196.55" transform="translate(39.19 1664.24) scale(0.92 0.99)" xlink:href="#Nowy_symbol"/><use width="196.55" height="196.55" transform="translate(414.68 1664.32) scale(0.92 0.99)" xlink:href="#Nowy_symbol"/><use width="196.55" height="196.55" transform="translate(880.89 1691.6) scale(0.92 0.99)" xlink:href="#Nowy_symbol"/><use width="196.55" height="196.55" transform="translate(1190.36 1694.52) scale(0.92 0.99)" xlink:href="#Nowy_symbol"/><use width="196.55" height="196.55" transform="translate(1455.94 1691.2) scale(0.92 0.99)" xlink:href="#Nowy_symbol"/><use width="196.55" height="196.55" transform="translate(1575.88 1650.87) scale(0.92 0.99)" xlink:href="#Nowy_symbol"/><use width="196.55" height="196.55" transform="translate(1654.54 1577.56) scale(0.92 0.99)" xlink:href="#Nowy_symbol"/><use width="196.55" height="196.55" transform="translate(1453.43 1450.4) scale(0.92 0.99)" xlink:href="#Nowy_symbol"/><use width="196.55" height="196.55" transform="translate(1229.53 1510.92) scale(0.92 0.99)" xlink:href="#Nowy_symbol"/><use width="196.55" height="196.55" transform="translate(814.41 1540.88) scale(0.92 0.99)" xlink:href="#Nowy_symbol"/><use width="196.55" height="196.55" transform="translate(277.23 1521.35) scale(0.92 0.99)" xlink:href="#Nowy_symbol"/><use width="196.55" height="196.55" transform="translate(53.71 1436.53) scale(0.92 0.99)" xlink:href="#Nowy_symbol"/><use width="196.55" height="196.55" transform="translate(-78.08 1250.5) scale(0.92 0.99)" xlink:href="#Nowy_symbol"/><use width="196.55" height="196.55" transform="translate(133.92 1182.64) scale(0.92 0.99)" xlink:href="#Nowy_symbol"/><use width="196.55" height="196.55" transform="translate(587.17 1170.25) scale(0.92 0.99)" xlink:href="#Nowy_symbol"/><use width="196.55" height="196.55" transform="translate(1017.04 1207.67) scale(0.92 0.99)" xlink:href="#Nowy_symbol"/><use width="196.55" height="196.55" transform="translate(1281.88 1245.13) scale(0.92 0.99)" xlink:href="#Nowy_symbol"/><use width="196.55" height="196.55" transform="translate(1558.16 1211.91) scale(0.92 0.99)" xlink:href="#Nowy_symbol"/><use width="196.55" height="196.55" transform="translate(1800.82 1094.37) scale(0.92 0.99)" xlink:href="#Nowy_symbol"/><use width="196.55" height="196.55" transform="translate(1680.68 935.21) scale(0.92 0.99)" xlink:href="#Nowy_symbol"/><use width="196.55" height="196.55" transform="translate(1152.31 890.23) scale(0.92 0.99)" xlink:href="#Nowy_symbol"/><use width="196.55" height="196.55" transform="translate(557.77 993.3) scale(0.92 0.99)" xlink:href="#Nowy_symbol"/><use width="196.55" height="196.55" transform="translate(248.49 973.64) scale(0.92 0.99)" xlink:href="#Nowy_symbol"/><use width="196.55" height="196.55" transform="translate(-55.79 881.64) scale(0.92 0.99)" xlink:href="#Nowy_symbol"/><use width="196.55" height="196.55" transform="translate(16.72 736.34) scale(0.92 0.99)" xlink:href="#Nowy_symbol"/><use width="196.55" height="196.55" transform="translate(413.84 694.28) scale(0.92 0.99)" xlink:href="#Nowy_symbol"/><use width="196.55" height="196.55" transform="translate(907.46 760.52) scale(0.92 0.99)" xlink:href="#Nowy_symbol"/><use width="196.55" height="196.55" transform="translate(1172.12 767.14) scale(0.92 0.99)" xlink:href="#Nowy_symbol"/><use width="196.55" height="196.55" transform="translate(1559.01 709.39) scale(0.92 0.99)" xlink:href="#Nowy_symbol"/><use width="196.55" height="196.55" transform="translate(1721.77 658.82) scale(0.92 0.99)" xlink:href="#Nowy_symbol"/><use width="196.55" height="196.55" transform="translate(1745.84 537.24) scale(0.92 0.99)" xlink:href="#Nowy_symbol"/><use width="196.55" height="196.55" transform="translate(1442.58 549.65) scale(0.92 0.99)" xlink:href="#Nowy_symbol"/><use width="196.55" height="196.55" transform="translate(984.61 578.42) scale(0.92 0.99)" xlink:href="#Nowy_symbol"/><use width="196.55" height="196.55" transform="translate(548.85 558.05) scale(0.92 0.99)" xlink:href="#Nowy_symbol"/><use width="196.55" height="196.55" transform="translate(204.72 484.45) scale(0.92 0.99)" xlink:href="#Nowy_symbol"/><use width="196.55" height="196.55" transform="translate(127.59 419.44) scale(0.92 0.99)" xlink:href="#Nowy_symbol"/><use width="196.55" height="196.55" transform="translate(210.02 320.75) scale(0.92 0.99)" xlink:href="#Nowy_symbol"/><use width="196.55" height="196.55" transform="translate(511.68 286.31) scale(0.92 0.99)" xlink:href="#Nowy_symbol"/><use width="196.55" height="196.55" transform="translate(791.01 291.9) scale(0.92 0.99)" xlink:href="#Nowy_symbol"/><use width="196.55" height="196.55" transform="translate(1105.4 319.41) scale(0.92 0.99)" xlink:href="#Nowy_symbol"/><use width="196.55" height="196.55" transform="translate(1412.33 275.94) scale(0.92 0.99)" xlink:href="#Nowy_symbol"/><use width="196.55" height="196.55" transform="translate(1609.03 214.34) scale(0.92 0.99)" xlink:href="#Nowy_symbol"/><use width="196.55" height="196.55" transform="translate(1587.65 61.19) scale(0.92 0.99)" xlink:href="#Nowy_symbol"/><use width="196.55" height="196.55" transform="translate(1383.02 7.71) scale(0.92 0.99)" xlink:href="#Nowy_symbol"/><use width="196.55" height="196.55" transform="translate(1117.55 8.38) scale(0.92 0.99)" xlink:href="#Nowy_symbol"/><use width="196.55" height="196.55" transform="translate(851.12 27.63) scale(0.92 0.99)" xlink:href="#Nowy_symbol"/><use width="196.55" height="196.55" transform="translate(547.04 31.46) scale(0.92 0.99)" xlink:href="#Nowy_symbol"/><use width="196.55" height="196.55" transform="translate(346.18 22.82) scale(0.92 0.99)" xlink:href="#Nowy_symbol"/><use width="196.55" height="196.55" transform="translate(216.93 -25.37) scale(0.92 0.99)" xlink:href="#Nowy_symbol"/><use width="196.55" height="196.55" transform="translate(127.99 -49) scale(0.92 0.99)" xlink:href="#Nowy_symbol"/><use width="196.55" height="196.55" transform="translate(91.26 1.61) scale(0.92 0.99)" xlink:href="#Nowy_symbol"/><use width="196.55" height="196.55" transform="translate(137.98 0.4) scale(0.92 0.99)" xlink:href="#Nowy_symbol"/><use width="196.55" height="196.55" transform="translate(167.21 81.44) scale(0.92 0.99)" xlink:href="#Nowy_symbol"/><use width="196.55" height="196.55" transform="translate(319.96 134.32) scale(0.92 0.99)" xlink:href="#Nowy_symbol"/><use width="196.55" height="196.55" transform="translate(475.93 157.35) scale(0.92 0.99)" xlink:href="#Nowy_symbol"/><use width="196.55" height="196.55" transform="translate(658.05 166.72) scale(0.92 0.99)" xlink:href="#Nowy_symbol"/><use width="196.55" height="196.55" transform="translate(858.33 168.31) scale(0.92 0.99)" xlink:href="#Nowy_symbol"/><use width="196.55" height="196.55" transform="translate(1076.91 163.86) scale(0.92 0.99)" xlink:href="#Nowy_symbol"/><use width="196.55" height="196.55" transform="translate(1304.08 116.75) scale(0.92 0.99)" xlink:href="#Nowy_symbol"/><use width="196.55" height="196.55" transform="translate(1541.06 55) scale(0.92 0.99)" xlink:href="#Nowy_symbol"/><use width="196.55" height="196.55" transform="translate(1643.53 109.19) scale(0.92 0.99)" xlink:href="#Nowy_symbol"/><use width="196.55" height="196.55" transform="translate(1282.66 469.16) scale(0.92 0.99)" xlink:href="#Nowy_symbol"/><use width="196.55" height="196.55" transform="translate(330.12 382.91) scale(0.92 0.99)" xlink:href="#Nowy_symbol"/><use width="196.55" height="196.55" transform="translate(1156.9 384.42) scale(0.92 0.99)" xlink:href="#Nowy_symbol"/><use width="196.55" height="196.55" transform="translate(391.28 534.3) scale(0.92 0.99)" xlink:href="#Nowy_symbol"/><use width="196.55" height="196.55" transform="translate(1287.15 366.83) scale(0.92 0.99)" xlink:href="#Nowy_symbol"/><use width="196.55" height="196.55" transform="translate(445.36 523.42) scale(0.92 0.99)" xlink:href="#Nowy_symbol"/><use width="196.55" height="196.55" transform="translate(1078.52 451.79) scale(0.92 0.99)" xlink:href="#Nowy_symbol"/><use width="196.55" height="196.55" transform="translate(606.36 614.65) scale(0.92 0.99)" xlink:href="#Nowy_symbol"/><use width="196.55" height="196.55" transform="translate(705.51 508.75) scale(0.92 0.99)" xlink:href="#Nowy_symbol"/><use width="196.55" height="196.55" transform="translate(677.5 627.65) scale(0.92 0.99)" xlink:href="#Nowy_symbol"/><use width="196.55" height="196.55" transform="translate(793.24 455.68) scale(0.92 0.99)" xlink:href="#Nowy_symbol"/><use width="196.55" height="196.55" transform="translate(839.14 422.64) scale(0.92 0.99)" xlink:href="#Nowy_symbol"/><use width="196.55" height="196.55" transform="translate(776.38 572.55) scale(0.92 0.99)" xlink:href="#Nowy_symbol"/><use width="196.55" height="196.55" transform="translate(759.72 704.02) scale(0.92 0.99)" xlink:href="#Nowy_symbol"/><use width="196.55" height="196.55" transform="translate(772.06 780.67) scale(0.92 0.99)" xlink:href="#Nowy_symbol"/><use width="196.55" height="196.55" transform="translate(800.26 858.44) scale(0.92 0.99)" xlink:href="#Nowy_symbol"/><use width="196.55" height="196.55" transform="translate(810.34 933.43) scale(0.92 0.99)" xlink:href="#Nowy_symbol"/><use width="196.55" height="196.55" transform="translate(814.23 1026.66) scale(0.92 0.99)" xlink:href="#Nowy_symbol"/><use width="196.55" height="196.55" transform="translate(813.19 1155.41) scale(0.92 0.99)" xlink:href="#Nowy_symbol"/><use width="196.55" height="196.55" transform="translate(826.06 1269.3) scale(0.92 0.99)" xlink:href="#Nowy_symbol"/><use width="196.55" height="196.55" transform="translate(863.13 1380.94) scale(0.92 0.99)" xlink:href="#Nowy_symbol"/><use width="196.55" height="196.55" transform="translate(925.35 1469.81) scale(0.92 0.99)" xlink:href="#Nowy_symbol"/><use width="196.55" height="196.55" transform="translate(997.28 1516.81) scale(0.92 0.99)" xlink:href="#Nowy_symbol"/><use width="196.55" height="196.55" transform="translate(1163.24 1444.65) scale(0.92 0.99)" xlink:href="#Nowy_symbol"/><use width="196.55" height="196.55" transform="translate(1240.99 1312.33) scale(0.92 0.99)" xlink:href="#Nowy_symbol"/><use width="196.55" height="196.55" transform="translate(1301.74 1100) scale(0.92 0.99)" xlink:href="#Nowy_symbol"/><use width="196.55" height="196.55" transform="translate(1433.86 994.09) scale(0.92 0.99)" xlink:href="#Nowy_symbol"/><use width="196.55" height="196.55" transform="translate(1048.04 1101.67) scale(0.92 0.99)" xlink:href="#Nowy_symbol"/><use width="196.55" height="196.55" transform="translate(922.21 1111.21) scale(0.92 0.99)" xlink:href="#Nowy_symbol"/><use width="196.55" height="196.55" transform="translate(731.11 1125.19) scale(0.92 0.99)" xlink:href="#Nowy_symbol"/><use width="196.55" height="196.55" transform="translate(685.19 902.93) scale(0.92 0.99)" xlink:href="#Nowy_symbol"/><use width="196.55" height="196.55" transform="translate(654.89 848.73) scale(0.92 0.99)" xlink:href="#Nowy_symbol"/><use width="196.55" height="196.55" transform="translate(291.01 1098.67) scale(0.92 0.99)" xlink:href="#Nowy_symbol"/><use width="196.55" height="196.55" transform="translate(626.34 968.89) scale(0.92 0.99)" xlink:href="#Nowy_symbol"/><use width="196.55" height="196.55" transform="translate(742.08 982.68) scale(0.92 0.99)" xlink:href="#Nowy_symbol"/><use width="196.55" height="196.55" transform="translate(418.88 1216.5) scale(0.92 0.99)" xlink:href="#Nowy_symbol"/><use width="196.55" height="196.55" transform="translate(602.61 1035.94) scale(0.92 0.99)" xlink:href="#Nowy_symbol"/><use width="196.55" height="196.55" transform="translate(498.46 832.89) scale(0.92 0.99)" xlink:href="#Nowy_symbol"/><use width="196.55" height="196.55" transform="translate(58.96 802.44) scale(0.92 0.99)" xlink:href="#Nowy_symbol"/><use width="196.55" height="196.55" transform="translate(295.21 648.49) scale(0.92 0.99)" xlink:href="#Nowy_symbol"/><use width="196.55" height="196.55" transform="translate(259.06 882.4) scale(0.92 0.99)" xlink:href="#Nowy_symbol"/><use width="196.55" height="196.55" transform="translate(349.75 736.99) scale(0.92 0.99)" xlink:href="#Nowy_symbol"/><use width="196.55" height="196.55" transform="translate(504.43 1010.49) scale(0.92 0.99)" xlink:href="#Nowy_symbol"/><use width="196.55" height="196.55" transform="translate(1212.32 550.45) scale(0.92 0.99)" xlink:href="#Nowy_symbol"/><use width="196.55" height="196.55" transform="translate(1199.96 952.24) scale(0.92 0.99)" xlink:href="#Nowy_symbol"/><use width="196.55" height="196.55" transform="translate(1231.05 668.57) scale(0.92 0.99)" xlink:href="#Nowy_symbol"/><use width="196.55" height="196.55" transform="translate(1256.73 823.04) scale(0.92 0.99)" xlink:href="#Nowy_symbol"/><use width="196.55" height="196.55" transform="translate(1149.22 1051.18) scale(0.92 0.99)" xlink:href="#Nowy_symbol"/><use width="196.55" height="196.55" transform="translate(1365.34 715.3) scale(0.92 0.99)" xlink:href="#Nowy_symbol"/><use width="196.55" height="196.55" transform="translate(1352.64 1140.81) scale(0.92 0.99)" xlink:href="#Nowy_symbol"/><use width="196.55" height="196.55" transform="translate(1519.54 1388.52) scale(0.92 0.99)" xlink:href="#Nowy_symbol"/><use width="196.55" height="196.55" transform="translate(1705.66 1287.37) scale(0.92 0.99)" xlink:href="#Nowy_symbol"/><use width="196.55" height="196.55" transform="translate(1308.55 1767.99) scale(0.92 0.99)" xlink:href="#Nowy_symbol"/><use width="196.55" height="196.55" transform="translate(1340.98 1586.83) scale(0.92 0.99)" xlink:href="#Nowy_symbol"/><use width="196.55" height="196.55" transform="translate(1201.39 1770.89) scale(0.92 0.99)" xlink:href="#Nowy_symbol"/><use width="196.55" height="196.55" transform="translate(739.93 1986.51) scale(0.92 0.99)" xlink:href="#Nowy_symbol"/><use width="196.55" height="196.55" transform="translate(675.83 1533.55) scale(0.92 0.99)" xlink:href="#Nowy_symbol"/><use width="196.55" height="196.55" transform="translate(626.53 1955.9) scale(0.92 0.99)" xlink:href="#Nowy_symbol"/><use width="196.55" height="196.55" transform="translate(585.65 1917.31) scale(0.92 0.99)" xlink:href="#Nowy_symbol"/><use width="196.55" height="196.55" transform="translate(451.73 1525.59) scale(0.92 0.99)" xlink:href="#Nowy_symbol"/><use width="196.55" height="196.55" transform="translate(491.49 1550.68) scale(0.92 0.99)" xlink:href="#Nowy_symbol"/><use width="196.55" height="196.55" transform="translate(564.02 1797.16) scale(0.92 0.99)" xlink:href="#Nowy_symbol"/><use width="196.55" height="196.55" transform="translate(789.45 1705.72) scale(0.92 0.99)" xlink:href="#Nowy_symbol"/><use width="196.55" height="196.55" transform="translate(912.13 1849.85) scale(0.92 0.99)" xlink:href="#Nowy_symbol"/><use width="196.55" height="196.55" transform="translate(836.29 1965.11) scale(0.92 0.99)" xlink:href="#Nowy_symbol"/><use width="196.55" height="196.55" transform="translate(958.23 1756.49) scale(0.92 0.99)" xlink:href="#Nowy_symbol"/><use width="196.55" height="196.55" transform="translate(988.49 2096.59) scale(0.92 0.99)" xlink:href="#Nowy_symbol"/><use width="196.55" height="196.55" transform="translate(1227.27 2020.2) scale(0.92 0.99)" xlink:href="#Nowy_symbol"/><use width="196.55" height="196.55" transform="translate(1279.76 2362.45) scale(0.92 0.99)" xlink:href="#Nowy_symbol"/><use width="196.55" height="196.55" transform="translate(1205.26 2262.66) scale(0.92 0.99)" xlink:href="#Nowy_symbol"/><use width="196.55" height="196.55" transform="translate(1052.21 2065.77) scale(0.92 0.99)" xlink:href="#Nowy_symbol"/><use width="196.55" height="196.55" transform="translate(1046.27 2344.48) scale(0.92 0.99)" xlink:href="#Nowy_symbol"/><use width="196.55" height="196.55" transform="translate(1044.99 2008.49) scale(0.92 0.99)" xlink:href="#Nowy_symbol"/></svg>